<svg width="667" height="1346" viewBox="0 0 667 1346" fill="none" xmlns="http://www.w3.org/2000/svg">
<path d="M262.026 0.122314C276.535 -0.206968 290.869 0.126425 305.026 1.12231H305.025C312.881 1.28931 320.548 1.95596 328.025 3.12231C331.212 3.24011 334.213 4.07359 337.025 5.62231C337.931 7.32171 338.264 9.15525 338.025 11.1223C350.91 26.0164 364.244 40.6832 378.025 55.1223C393.543 67.7172 408.877 80.5514 424.025 93.6223C447.282 117.313 468.782 142.479 488.525 169.122C501.962 190.328 514.629 211.995 526.525 234.122C527.426 237.142 528.259 240.142 529.025 243.122C529.834 244.914 530.334 246.914 530.525 249.122C531.025 257.782 531.191 266.449 531.025 275.122C534.228 276.808 537.061 279.142 539.525 282.122C543.145 287.411 547.145 292.411 551.525 297.122C554.939 303.619 558.606 309.952 562.525 316.122C563.392 325.117 563.725 334.117 563.525 343.122C558.192 343.789 552.858 344.455 547.525 345.122C538.606 359.959 529.939 374.959 521.525 390.122C512.273 400.041 502.606 409.708 492.525 419.122C489.745 423.684 487.245 428.35 485.025 433.122C483.855 441.094 483.855 449.094 485.025 457.122C486.871 472.764 488.538 488.431 490.025 504.122C491.763 508.839 492.429 513.839 492.025 519.122C494.95 534.233 495.617 549.566 494.025 565.122C494.266 567.52 493.599 569.52 492.025 571.122C490.02 579.464 488.02 587.797 486.025 596.122C485.878 599.065 485.212 601.898 484.025 604.622C484.984 606.742 485.151 608.909 484.525 611.122C484.192 610.122 483.858 609.122 483.525 608.122C483.488 610.596 482.655 612.596 481.025 614.122C477.392 625.616 474.392 637.282 472.025 649.122C471.735 653.558 472.235 657.892 473.525 662.122C474.179 660.927 474.679 660.927 475.025 662.122C474.279 663.358 473.946 664.692 474.025 666.122C474.832 675.378 475.332 684.712 475.525 694.122C488.108 701.496 500.608 708.996 513.025 716.622C525.203 726.473 537.037 736.64 548.525 747.122C549.576 752.665 551.243 757.998 553.525 763.122C554.969 764.777 556.803 765.444 559.025 765.122C562.251 765.298 565.252 765.965 568.025 767.122C571.974 772.911 576.141 778.578 580.525 784.122C584.242 790.655 586.575 797.655 587.525 805.122C601.674 829.752 614.507 855.086 626.025 881.122C627.738 882.257 628.405 883.924 628.025 886.122C628.959 887.19 629.293 888.523 629.025 890.122C631.079 892.63 632.079 895.63 632.025 899.122C638.467 918.403 644.134 938.069 649.025 958.122C652.831 966.092 654.831 974.752 655.025 984.122C656.229 992.272 658.062 1000.27 660.525 1008.12C661.033 1014.85 661.866 1021.52 663.025 1028.12C663.732 1029.85 664.732 1031.52 666.025 1033.12C665.177 1035.03 664.843 1037.03 665.025 1039.12C664.54 1059.85 663.54 1080.52 662.025 1101.12C662.163 1111.99 661.496 1122.65 660.025 1133.12C658.271 1137.55 657.271 1142.22 657.025 1147.12C657.115 1149.77 656.449 1152.11 655.025 1154.12V1155.12C655.231 1158.12 654.565 1160.78 653.025 1163.12C652.358 1166.45 651.692 1169.79 651.025 1173.12C650.824 1176.13 650.491 1179.13 650.025 1182.12C649.94 1183.95 649.273 1185.29 648.025 1186.12C647.535 1189.28 646.869 1192.28 646.025 1195.12C646.189 1197.81 646.022 1200.47 645.525 1203.12C645.142 1203.68 644.642 1204.01 644.025 1204.12C642.185 1214.49 640.018 1224.82 637.525 1235.12C634.431 1240.03 631.598 1245.03 629.025 1250.12C628.607 1253.97 626.94 1256.97 624.025 1259.12C618.883 1267.39 613.717 1275.72 608.525 1284.12C603.692 1288.95 598.858 1293.79 594.025 1298.62C592.143 1298.82 590.477 1299.32 589.025 1300.12C586.354 1301.74 583.354 1302.4 580.025 1302.12C577.926 1303.23 575.592 1303.9 573.025 1304.12C572.178 1305.59 570.845 1306.42 569.025 1306.62C569.692 1306.95 570.358 1307.29 571.025 1307.62C566.349 1306.92 561.682 1307.09 557.025 1308.12C554.904 1307.95 552.904 1308.28 551.025 1309.12C546.264 1310.95 541.264 1312.28 536.025 1313.12H534.025C529.29 1314.98 524.29 1316.31 519.025 1317.12C512.218 1317.4 505.884 1319.07 500.025 1322.12C496.023 1324.23 491.69 1325.56 487.025 1326.12H486.025C485.644 1327.55 484.644 1328.38 483.025 1328.62C484.179 1329.53 484.012 1330.37 482.525 1331.12C482.192 1330.45 481.858 1329.79 481.525 1329.12C479.189 1331.65 476.522 1332.65 473.525 1332.12C470.019 1332.83 466.519 1333.5 463.025 1334.12C458.286 1334.8 453.62 1335.8 449.025 1337.12C446.942 1338.59 444.609 1339.76 442.025 1340.62C434.639 1341.56 427.306 1342.72 420.025 1344.12C397.707 1346.51 375.374 1346.34 353.025 1343.62C343.906 1339.75 334.572 1336.58 325.025 1334.12C322.039 1333.72 319.373 1332.72 317.025 1331.12C315.043 1330.62 313.042 1330.12 311.025 1329.62C298.981 1322.6 286.647 1316.1 274.025 1310.12C272.498 1310.19 271.498 1309.53 271.025 1308.12C258.299 1302.59 246.299 1295.76 235.025 1287.62C226.156 1279.08 216.989 1270.92 207.525 1263.12C205.913 1258.68 204.08 1254.35 202.025 1250.12C200.482 1248.22 198.816 1246.39 197.025 1244.62C197.511 1242.59 197.511 1240.43 197.025 1238.12V1237.12C193.477 1223.78 191.144 1210.12 190.025 1196.12C187.861 1191.12 185.194 1186.45 182.025 1182.12C180.619 1181.65 179.952 1180.65 180.025 1179.12C168.72 1168.65 157.22 1158.32 145.525 1148.12C133.606 1128.62 121.94 1108.95 110.525 1089.12C102.493 1079.59 94.3265 1070.26 86.0247 1061.12C84.4388 1060.47 82.7715 1059.97 81.0247 1059.62C81.6916 1059.29 82.3578 1058.95 83.0247 1058.62C81.7588 1058.31 80.5915 1057.81 79.5247 1057.12C79.1406 1054.56 78.3076 1052.23 77.0247 1050.12C60.6218 1030.31 45.9546 1009.31 33.0247 987.122C32.0669 986.672 31.2325 986.002 30.5247 985.122C30.1917 985.452 29.8577 985.792 29.5247 986.122C28.3677 981.842 27.5346 977.502 27.0247 973.122C25.0988 969.602 23.4316 965.932 22.0247 962.122C20.619 961.652 19.9517 960.652 20.0247 959.122C19.6917 957.792 19.3576 956.455 19.0247 955.122C16.87 953.005 15.8697 950.338 16.0247 947.122C13.7447 935.922 10.9116 924.922 7.52466 914.122C5.79768 903.452 4.13163 892.786 2.52466 882.122C-0.231274 865.522 -0.731325 848.855 1.02466 832.122C0.974691 827.07 1.47469 822.07 2.52466 817.122C2.90758 816.566 3.40785 816.233 4.02466 816.122C7.70563 810.086 11.3727 804.086 15.0247 798.122C29.6496 767.312 43.1497 735.979 55.5247 704.122C62.2776 691.692 68.6107 679.025 74.5247 666.122C92.0246 641.789 109.525 617.455 127.025 593.122C137.525 584.795 148.192 576.628 159.025 568.622C186.633 554.819 214.3 541.319 242.025 528.122C253.209 517.77 264.543 507.603 276.025 497.622C280.976 492.216 285.809 486.716 290.525 481.122C308.525 455.789 326.525 430.455 344.525 405.122C352.192 398.789 359.858 392.455 367.525 386.122C374.036 375.094 380.536 364.094 387.025 353.122C387.387 348.519 388.387 344.186 390.025 340.122C390.528 329.647 389.861 319.314 388.025 309.122C386.601 307.107 385.935 304.774 386.025 302.122C384.805 294.37 382.472 287.036 379.025 280.122C375.255 277.146 373.255 273.146 373.025 268.122C372.062 264.879 370.729 261.878 369.025 259.122L369.024 259.121C365.918 257.469 364.253 254.803 364.026 251.122C363.252 249.912 362.418 249.912 361.526 251.122C360.875 249.387 361.041 247.72 362.026 246.122C359.953 243.503 358.952 240.503 359.025 237.122C357.931 233.941 356.597 230.94 355.025 228.122C352.377 227.884 350.543 226.55 349.525 224.122C349.477 221.294 348.477 218.959 346.525 217.122C346.07 213.768 345.57 210.435 345.025 207.122H342.025V200.122C335.177 184.412 328.177 168.745 321.025 153.122C318.385 148.806 315.719 144.473 313.025 140.122C313.371 138.773 313.704 137.439 314.025 136.122C309.668 126.353 307.335 116.02 307.025 105.122C307.583 102.278 308.25 99.4442 309.025 96.6223C308.432 93.7525 307.766 90.9192 307.025 88.1223V87.1223C305.939 87.0022 305.272 86.3351 305.025 85.1223C303.682 79.1115 302.349 73.1112 301.025 67.1223C289.333 49.071 276.667 31.7374 263.025 15.1223C262.038 10.317 261.705 5.31676 262.026 0.122314ZM397.265 1342.98V1342.98V1342.98ZM379.79 1340.98V1340.98V1340.98ZM294.025 7.62231C285.365 7.12253 276.698 6.95592 268.025 7.12231V13.1223C279.693 28.2956 291.193 43.6293 302.525 59.1223C305.831 64.3922 307.997 70.0595 309.025 76.1223C310.449 78.1372 311.115 80.4705 311.025 83.1223C312.25 87.2991 313.584 91.4665 315.025 95.6223C313.908 98.3532 313.242 101.187 313.025 104.122C312.972 109.818 313.305 115.484 314.025 121.122C314.085 123.963 314.751 126.629 316.025 129.122C319.081 131.269 320.415 134.269 320.025 138.122C328.6 157.989 337.1 177.989 345.525 198.122C355.445 216.627 364.278 235.627 372.025 255.122C373.431 255.595 374.098 256.596 374.025 258.122C378.032 267.955 382.532 277.622 387.525 287.122C389.542 296.188 391.708 305.188 394.025 314.122C399.358 325.455 399.358 336.789 394.025 348.122V349.122C394.338 351.869 394.005 354.536 393.025 357.122C391.069 358.973 390.069 361.307 390.025 364.122H387.025C386.619 367.893 385.786 371.56 384.525 375.122C382.195 372.441 381.695 372.774 383.025 376.122C382.679 377.318 382.179 377.318 381.525 376.122C379.179 379.815 377.513 383.815 376.525 388.122L375.525 387.122C373.089 389.089 370.589 390.756 368.025 392.122C360.124 397.846 352.624 404.179 345.525 411.122C332.682 429.484 319.849 447.818 307.025 466.122C306.68 468.82 305.347 470.82 303.025 472.122C295.303 482.348 286.97 492.182 278.025 501.622C266.108 512.382 254.108 522.882 242.025 533.122C240.787 535.241 239.287 537.241 237.525 539.122L236.525 538.122C235.126 538.849 233.626 539.349 232.025 539.622C232.691 539.955 233.358 540.289 234.025 540.622C227.638 542.396 221.304 544.23 215.025 546.122C199.343 553.296 184.01 560.963 169.025 569.122C168.948 570.372 168.281 571.205 167.025 571.622C168.024 571.955 169.025 572.289 170.025 572.622C168.084 572.926 166.418 573.759 165.025 575.122L163.025 573.122C161.478 574.39 160.478 576.057 160.025 578.122C156.249 579.269 152.582 580.602 149.025 582.122C142.654 586.067 136.487 590.4 130.525 595.122C117.594 614.651 103.927 633.651 89.5247 652.122C84.7517 659.344 80.2516 666.677 76.0247 674.122C76.0977 675.649 75.4307 676.649 74.0247 677.122C68.1607 688.285 62.8266 699.618 58.0247 711.122C57.5967 714.294 57.4297 717.294 57.5247 720.122C56.5247 720.455 55.5246 720.789 54.5247 721.122C53.7667 723.391 53.9339 725.558 55.0247 727.622C53.5208 729.113 52.6877 730.946 52.5247 733.122C52.1917 732.122 51.8576 731.122 51.5247 730.122L50.5247 731.122C50.0317 734.297 48.8646 736.963 47.0247 739.122C38.6537 756.548 30.6536 774.215 23.0247 792.122C22.9457 793.552 23.2789 794.886 24.0247 796.122C21.6917 798.789 19.3577 801.455 17.0247 804.122C17.8336 805.693 18.1676 807.36 18.0247 809.122C15.8218 809.226 13.8215 809.892 12.0247 811.122C10.6347 812.521 9.63467 814.188 9.02466 816.122C8.57167 820.37 7.57161 824.37 6.02466 828.122V837.122C5.97466 853.821 6.64168 870.488 8.02466 887.122C8.60464 891.432 8.93864 895.765 9.02466 900.122C10.4296 909.741 12.7628 919.075 16.0247 928.122C17.4486 930.137 18.1146 932.47 18.0247 935.122C19.1086 943.127 21.2748 950.794 24.5247 958.122C28.3896 965.182 31.7227 972.522 34.5247 980.122C42.5246 993.452 50.5248 1006.79 58.5247 1020.12C76.4815 1042.41 94.8148 1064.41 113.525 1086.12C124.923 1105.49 136.256 1124.83 147.525 1144.12C151.267 1148.37 155.433 1152.03 160.025 1155.12C162.614 1156.04 164.614 1157.71 166.025 1160.12C165.863 1160.06 165.703 1160 165.546 1159.94C164.918 1159.69 164.326 1159.39 163.771 1159.04C164.465 1159.47 165.216 1159.83 166.025 1160.12C173.017 1166.61 179.85 1173.28 186.525 1180.12C190.046 1185.69 193.38 1191.36 196.525 1197.12C197.647 1201.72 198.147 1206.39 198.025 1211.12C198.044 1211.99 198.077 1212.85 198.123 1213.71C198.077 1212.85 198.044 1211.99 198.025 1211.12C200.126 1217.49 201.126 1224.16 201.025 1231.12C201.798 1234.76 202.465 1238.43 203.025 1242.12C204.77 1243.65 205.77 1245.65 206.025 1248.12C207.751 1252.47 209.585 1256.8 211.525 1261.12C222.025 1270.29 232.525 1279.45 243.025 1288.62C265.123 1299.54 286.791 1311.2 308.025 1323.62C312.693 1325.23 317.361 1326.73 322.025 1328.12C324.676 1328.03 327.01 1328.7 329.025 1330.12C334.284 1332.86 339.951 1334.86 346.025 1336.12C352.683 1338.11 359.35 1339.44 366.025 1340.12H372.025C383.363 1340.31 394.697 1340.65 406.025 1341.12H410.025C412.621 1340.35 415.288 1340.02 418.025 1340.12C418.136 1339.5 418.469 1339 419.025 1338.62C420.998 1338.12 422.998 1337.96 425.025 1338.12C436.585 1335.73 448.085 1333.06 459.525 1330.12C479.105 1323.1 498.939 1317.1 519.025 1312.12C521.04 1310.7 523.373 1310.03 526.025 1310.12C530.001 1309.32 534.001 1308.66 538.025 1308.12C539.627 1306.55 541.627 1305.88 544.025 1306.12C559.979 1302.63 575.979 1298.8 592.025 1294.62C596.552 1290.09 601.052 1285.59 605.525 1281.12C614.858 1265.12 624.192 1249.12 633.525 1233.12C640.246 1201.14 647.08 1169.14 654.025 1137.12C654.301 1135.74 654.559 1134.35 654.798 1132.96V1132.96C654.679 1133.65 654.555 1134.35 654.426 1135.04C654.297 1135.74 654.163 1136.43 654.025 1137.12C654.059 1134.42 653.392 1131.92 652.025 1129.62C652.651 1128.87 653.151 1128.04 653.525 1127.12C653.858 1127.45 654.192 1127.79 654.525 1128.12C654.384 1119.39 655.217 1111.06 657.025 1103.12C656.9 1097.42 657.233 1091.75 658.025 1086.12C657.795 1073.4 658.462 1060.74 660.025 1048.12C659.617 1042.45 659.284 1036.79 659.025 1031.12C658.229 1026.51 657.562 1021.84 657.025 1017.12C656.408 1017.01 655.908 1016.68 655.525 1016.12C655.09 1011.44 654.59 1006.77 654.025 1002.12C651.57 989.612 648.903 977.282 646.025 965.122C644.485 962.782 643.819 960.122 644.025 957.122C643.361 953.135 642.694 949.135 642.025 945.122C639.349 936.407 636.682 927.74 634.025 919.122C631.691 917.446 630.691 915.113 631.025 912.122C627.708 901.993 624.875 891.659 622.525 881.122C610.14 856.687 597.473 832.353 584.525 808.122C582.327 801.861 580.327 795.527 578.525 789.122C574.236 783.377 570.069 777.543 566.025 771.622C560.706 770.015 555.373 768.515 550.025 767.122C548.138 760.352 545.971 753.685 543.525 747.122C535.358 740.289 527.192 733.455 519.025 726.622C503.501 715.694 487.501 705.527 471.025 696.122C470.258 686.273 469.591 676.273 469.025 666.122C467.63 662.936 466.63 659.602 466.025 656.122C472.54 627.844 479.54 599.844 487.025 572.122C486.971 568.63 487.971 565.63 490.025 563.122V560.122C490.091 550.77 489.757 541.437 489.025 532.122C489.281 528.353 488.948 524.686 488.025 521.122C486.868 518.349 486.201 515.349 486.025 512.122C484.422 494.352 482.422 476.686 480.025 459.122C478.115 450.684 477.615 442.017 478.525 433.122C478.908 432.566 479.408 432.233 480.025 432.122C482.295 427.347 484.795 422.68 487.525 418.122L517.525 388.122C524.448 375.27 531.615 362.604 539.025 350.122C538.986 349.039 538.652 348.039 538.025 347.122C539.434 346.8 540.934 345.8 542.525 344.122C541.411 341.954 541.911 340.12 544.025 338.622C548.68 338.123 553.346 337.956 558.025 338.122V325.122C556.948 320.76 555.614 316.427 554.025 312.122C552.73 308.199 550.897 304.532 548.525 301.122C545.161 296.765 541.827 292.431 538.525 288.122C533.664 283.779 529.498 279.112 526.025 274.122C525.109 264.623 524.442 254.957 524.025 245.122C523.512 241.393 522.679 237.726 521.525 234.122C509.124 212.323 496.458 190.657 483.525 169.122C465.054 147.314 446.554 125.48 428.025 103.622C410 88.2594 392 72.9262 374.025 57.6223C359.697 41.6282 345.03 25.9612 330.025 10.6223C328.118 9.50046 326.117 8.66697 324.025 8.12231C320.343 7.95705 316.677 8.12373 313.025 8.62231C312.109 8.9965 311.275 9.49657 310.525 10.1223C303.772 9.30835 296.939 8.80831 290.025 8.62231C291.358 8.28904 292.692 7.95559 294.025 7.62231ZM360.074 1340.26C361.153 1340.33 362.244 1340.34 363.349 1340.31V1340.31C362.244 1340.34 361.153 1340.33 360.074 1340.26V1340.26ZM354.379 1339.41C354.791 1339.51 355.206 1339.6 355.622 1339.69C355.206 1339.6 354.791 1339.51 354.379 1339.41ZM563.011 1305.94C562.864 1305.99 562.717 1306.03 562.571 1306.08C562.717 1306.03 562.864 1305.99 563.011 1305.94ZM624.849 1256.6C624.768 1256.8 624.691 1257 624.616 1257.21C624.766 1256.8 624.927 1256.39 625.1 1255.99L624.849 1256.6ZM653.125 1161.5V1161.5V1161.5ZM160.881 1156.4C161.085 1156.67 161.298 1156.92 161.521 1157.16C161.298 1156.92 161.085 1156.67 160.881 1156.4ZM660.979 1111H660.978H660.979ZM5.47583 872.634H5.47681H5.47583Z" fill="#5B5C5B"/>
</svg>
